<svg xmlns="http://www.w3.org/2000/svg" width="56" height="29" viewBox="0 0 56 29" fill="none"><path d="M2.736 5.376C3.056 4.88533 3.456 4.50133 3.936 4.224C4.416 3.936 4.94933 3.792 5.536 3.792V6.688H4.784C4.10133 6.688 3.58933 6.83733 3.248 7.136C2.90667 7.424 2.736 7.936 2.736 8.672V12.816H0V3.888H2.736V5.376ZM7.71975 2.96C7.23975 2.96 6.84508 2.82133 6.53575 2.544C6.23708 2.256 6.08775 1.904 6.08775 1.488C6.08775 1.06133 6.23708 0.70933 6.53575 0.432C6.84508 0.144 7.23975 0 7.71975 0C8.18908 0 8.57308 0.144 8.87175 0.432C9.1811 0.70933 9.3358 1.06133 9.3358 1.488C9.3358 1.904 9.1811 2.256 8.87175 2.544C8.57308 2.82133 8.18908 2.96 7.71975 2.96ZM9.0798 3.888V12.816H6.34375V3.888H9.0798ZM10.0185 8.352C10.0185 7.424 10.2052 6.61333 10.5785 5.92C10.9625 5.22667 11.4905 4.69333 12.1625 4.32C12.8452 3.94667 13.6238 3.76 14.4985 3.76C15.6185 3.76 16.5518 4.05333 17.2985 4.64C18.0558 5.22667 18.5518 6.05333 18.7865 7.12H15.8745C15.6292 6.43733 15.1545 6.096 14.4505 6.096C13.9492 6.096 13.5492 6.29333 13.2505 6.688C12.9518 7.072 12.8025 7.62667 12.8025 8.352C12.8025 9.0773 12.9518 9.6373 13.2505 10.032C13.5492 10.416 13.9492 10.608 14.4505 10.608C15.1545 10.608 15.6292 10.2667 15.8745 9.584H18.7865C18.5518 10.6293 18.0558 11.4507 17.2985 12.048C16.5412 12.6453 15.6078 12.944 14.4985 12.944C13.6238 12.944 12.8452 12.7573 12.1625 12.384C11.4905 12.0107 10.9625 11.4773 10.5785 10.784C10.2052 10.0907 10.0185 9.28 10.0185 8.352ZM25.238 3.792C26.262 3.792 27.0833 4.13333 27.702 4.816C28.3207 5.488 28.63 6.416 28.63 7.6V12.816H25.91V7.968C25.91 7.37067 25.7553 6.90667 25.446 6.576C25.1367 6.24533 24.7207 6.08 24.198 6.08C23.6753 6.08 23.2593 6.24533 22.95 6.576C22.6407 6.90667 22.486 7.37067 22.486 7.968V12.816H19.75V0.976H22.486V5.088C22.7633 4.69333 23.142 4.37867 23.622 4.144C24.102 3.90933 24.6407 3.792 25.238 3.792ZM29.4873 8.336C29.4873 7.41867 29.6579 6.61333 29.9993 5.92C30.3513 5.22667 30.8259 4.69333 31.4233 4.32C32.0206 3.94667 32.6873 3.76 33.4233 3.76C34.0526 3.76 34.6019 3.888 35.0713 4.144C35.5513 4.4 35.9193 4.736 36.1753 5.152V3.888H38.9113V12.816H36.1753V11.552C35.9086 11.968 35.5353 12.304 35.0553 12.56C34.5859 12.816 34.0366 12.944 33.4073 12.944C32.6819 12.944 32.0206 12.7573 31.4233 12.384C30.8259 12 30.3513 11.4613 29.9993 10.768C29.6579 10.064 29.4873 9.2533 29.4873 8.336ZM36.1753 8.352C36.1753 7.66933 35.9833 7.13067 35.5993 6.736C35.2259 6.34133 34.7673 6.144 34.2233 6.144C33.6793 6.144 33.2153 6.34133 32.8313 6.736C32.4579 7.12 32.2713 7.65333 32.2713 8.336C32.2713 9.0187 32.4579 9.5627 32.8313 9.968C33.2153 10.3627 33.6793 10.56 34.2233 10.56C34.7673 10.56 35.2259 10.3627 35.5993 9.968C35.9833 9.5733 36.1753 9.0347 36.1753 8.352ZM43.1266 5.376C43.4466 4.88533 43.8466 4.50133 44.3266 4.224C44.8066 3.936 45.34 3.792 45.9266 3.792V6.688H45.1746C44.492 6.688 43.98 6.83733 43.6386 7.136C43.2973 7.424 43.1266 7.936 43.1266 8.672V12.816H40.3906V3.888H43.1266V5.376ZM46.1904 8.336C46.1904 7.41867 46.361 6.61333 46.7024 5.92C47.0544 5.22667 47.529 4.69333 48.1264 4.32C48.7237 3.94667 49.3904 3.76 50.1264 3.76C50.713 3.76 51.2464 3.88267 51.7264 4.128C52.217 4.37333 52.601 4.704 52.8784 5.12V0.976H55.6144V12.816H52.8784V11.536C52.6224 11.9627 52.2544 12.304 51.7744 12.56C51.305 12.816 50.7557 12.944 50.1264 12.944C49.3904 12.944 48.7237 12.7573 48.1264 12.384C47.529 12 47.0544 11.4613 46.7024 10.768C46.361 10.064 46.1904 9.2533 46.1904 8.336ZM52.8784 8.352C52.8784 7.66933 52.6864 7.13067 52.3024 6.736C51.929 6.34133 51.4704 6.144 50.9264 6.144C50.3824 6.144 49.9184 6.34133 49.5344 6.736C49.161 7.12 48.9744 7.65333 48.9744 8.336C48.9744 9.0187 49.161 9.5627 49.5344 9.968C49.9184 10.3627 50.3824 10.56 50.9264 10.56C51.4704 10.56 51.929 10.3627 52.3024 9.968C52.6864 9.5733 52.8784 9.0347 52.8784 8.352Z" fill="#1D262B"></path><path d="M48.0081 27.816H56.0081" stroke="#D96827" stroke-width="2"></path><path d="M13.6731 19.7603C14.3024 19.7603 14.8521 19.8881 15.3215 20.1441C15.8014 20.4001 16.1691 20.7361 16.425 21.1519V19.8882H19.1614V28.816H16.425V27.5523C16.1584 27.9682 15.7848 28.3042 15.3049 28.5601C14.8356 28.816 14.2865 28.9439 13.6575 28.9439C12.9321 28.9439 12.2704 28.7576 11.6731 28.3843C11.0757 28.0004 10.6013 27.4614 10.2493 26.7681C9.90793 26.0643 9.73761 25.2536 9.73755 24.3365C9.73755 23.4194 9.908 22.6137 10.2493 21.9205C10.6012 21.2272 11.0757 20.6932 11.6731 20.3199C12.2703 19.9466 12.9372 19.7603 13.6731 19.7603ZM40.9866 19.7603C42.1066 19.7603 42.9872 20.0376 43.6272 20.5923C44.2776 21.147 44.6513 21.8832 44.7473 22.8004H42.219C42.1763 22.4911 42.0375 22.2453 41.803 22.064C41.579 21.8827 41.2798 21.7916 40.9065 21.7916C40.5868 21.7916 40.3417 21.8561 40.1711 21.9839C40.0004 22.1012 39.9153 22.2667 39.9153 22.48C39.9153 22.736 40.0481 22.9282 40.3147 23.0562C40.592 23.1842 41.019 23.312 41.595 23.44C42.2562 23.6107 42.7952 23.781 43.2112 23.9517C43.627 24.1117 43.9897 24.3784 44.2991 24.7515C44.6191 25.1142 44.7845 25.6055 44.7952 26.2242C44.7951 26.7468 44.6455 27.2164 44.3469 27.6324C44.059 28.0375 43.6377 28.3577 43.0833 28.5923C42.5393 28.827 41.9042 28.9439 41.179 28.9439C40.4003 28.9439 39.7069 28.8102 39.0989 28.5435C38.491 28.2768 38.0104 27.9143 37.6584 27.4556C37.3067 26.9865 37.1093 26.464 37.0667 25.8882H39.7708C39.8028 26.1974 39.9474 26.4482 40.2034 26.6402C40.4593 26.832 40.7736 26.9283 41.1467 26.9283C41.488 26.9283 41.7495 26.8639 41.9309 26.7359C42.1229 26.5972 42.219 26.4209 42.219 26.2076C42.2188 25.9518 42.0851 25.7652 41.8186 25.648C41.5519 25.52 41.1198 25.3812 40.5227 25.232C39.8829 25.0827 39.3496 24.9281 38.9231 24.7681C38.4964 24.5974 38.1279 24.3359 37.8186 23.9839C37.5093 23.6213 37.3547 23.1358 37.3547 22.5279C37.3548 22.016 37.4935 21.5522 37.7708 21.1363C38.0587 20.7097 38.4749 20.3738 39.0188 20.1285C39.5733 19.8832 40.2293 19.7604 40.9866 19.7603ZM2.7356 21.0884C3.01293 20.6937 3.39231 20.3788 3.87231 20.1441C4.35214 19.9095 4.89049 19.7916 5.48755 19.7916C6.51155 19.7916 7.33372 20.1333 7.95239 20.816C8.57095 21.488 8.88013 22.4163 8.88013 23.6002V28.816H6.1604V23.9683C6.1604 23.371 6.00489 22.9064 5.69556 22.5757C5.38636 22.2454 4.97074 22.0798 4.44849 22.0797C3.926 22.0797 3.50973 22.2453 3.20044 22.5757C2.89111 22.9064 2.7356 23.371 2.7356 23.9683V28.816H0.000244141V16.9761H2.7356V21.0884ZM26.177 22.688H25.425C24.7425 22.688 24.2303 22.8376 23.8889 23.1363C23.5476 23.4243 23.3762 23.9364 23.3762 24.6724V28.816H20.6409V19.8882H23.3762V21.3755C23.6962 20.885 24.0966 20.5014 24.5764 20.2242C25.0564 19.9362 25.5904 19.7916 26.177 19.7916V22.688ZM32.5208 22.688H31.7688C31.0861 22.688 30.574 22.8376 30.2327 23.1363C29.8913 23.4243 29.72 23.9364 29.72 24.6724V28.816H26.9846V19.8882H29.72V21.3755C30.0399 20.885 30.4403 20.5014 30.9202 20.2242C31.4002 19.9362 31.9341 19.7916 32.5208 19.7916V22.688ZM36.0637 28.816H33.3284V19.8882H36.0637V28.816ZM14.0081 21.816C12.9035 21.816 12.0081 22.9353 12.0081 24.316C12.0081 25.6967 12.9035 26.816 14.0081 26.816C15.1126 26.816 16.0081 25.6967 16.0081 24.316C16.0081 22.9353 15.1126 21.816 14.0081 21.816ZM34.7043 15.9996C35.1736 15.9996 35.5572 16.1443 35.8557 16.4322C36.1651 16.7095 36.3205 17.0612 36.3206 17.4879C36.3206 17.9038 36.1651 18.2555 35.8557 18.5435C35.5572 18.8208 35.1736 18.9595 34.7043 18.9595C34.2243 18.9595 33.8292 18.8208 33.5198 18.5435C33.2214 18.2556 33.0725 17.9037 33.0725 17.4879C33.0725 17.0613 33.2214 16.7094 33.5198 16.4322C33.8292 16.1442 34.2243 15.9996 34.7043 15.9996Z" fill="#D96827"></path></svg>